<svg width="110" height="108" fill="none" xmlns="http://www.w3.org/2000/svg"><path fill-rule="evenodd" clip-rule="evenodd" d="M54.297.13c0 .07.068.19.15.263.13.118.313.14 1.443.183.711.026 1.47.08 1.685.118.216.039.592.072.837.075l.446.005V.09l-.374-.044C58.278.021 57.252 0 56.204 0c-1.806 0-1.907.006-1.907.13zm-6.185.119a.349.349 0 0 1-.226.103c-.182 0-.247.235-.13.474.078.158.136.19.308.171.116-.012.516-.038.889-.057.372-.019.707-.064.744-.1.037-.036.316-.066.619-.066.62 0 .774-.085.774-.427V.14l-1.443.003c-1.174.002-1.46.022-1.535.106zm-2.224.335c0 .05.106.193.235.317.179.171.299.225.5.225h.263V.492h-.499c-.362 0-.499.026-.499.092zm-3.912.789c-.651.144-1.268.355-2.296.785-.828.346-1.655.577-2.842.796a4.13 4.13 0 0 0-.926.32 5.28 5.28 0 0 1-.927.35 4.993 4.993 0 0 0-.926.358c-.255.134-1.008.517-1.675.851-2.42 1.214-4.455 2.417-6.368 3.764-.846.596-1.146.77-1.323.77-.424 0-1.952 1.101-3.425 2.468a38.285 38.285 0 0 1-1.64 1.426c-.437.353-.84.74-.913.876-.098.185-.244.296-.615.466-.458.21-.502.252-.754.708-.147.266-.352.533-.457.592-.11.062-.245.243-.321.431-.078.191-.354.558-.674.896-.297.315-.717.85-.933 1.19-.443.699-.84 1.035-1.384 1.175l-.351.09-.487.987c-.31.632-.655 1.203-.956 1.586-.434.552-.686.948-1.526 2.395-.714 1.23-2.041 2.695-3.063 3.38-.308.207-.476.381-.598.62a8.388 8.388 0 0 0-.61 1.716c-.082.395-.087.402-.654.77-.448.29-.607.44-.737.693-.386.753-1.067 2.543-1.461 3.84l-.277.91.28.504c.154.277.28.552.28.61 0 .166-.667 1.064-.948 1.275-.21.158-.268.262-.336.597-.046.222-.223 1.023-.393 1.778a93.538 93.538 0 0 0-1.063 5.495c-.785 4.797-.848 6.542-.391 10.847 1.4 13.195 5.396 23.332 12.382 31.415 1.98 2.29 6.535 6.566 9.512 8.928a42.289 42.289 0 0 0 5.624 3.745c.481.267 1.03.583 1.221.703.28.176.423.219.736.219.36 0 .411-.022.672-.282.166-.166.35-.282.446-.282.247 0 2.2.823 2.334.982.064.077.14.323.167.547.115.913.38 1.165 1.658 1.575.679.218 1.068.301 1.535.328.504.03.64.061.694.163.134.247.62.351 1.958.416 1.027.05 1.475.107 2.245.283 1.282.295 1.697.396 2.459.599.45.12.835.172 1.291.175.413.002.746.043.91.11.142.059.65.205 1.13.325.907.226 2.359.368 3.723.363.746-.003 1.336-.178 1.38-.409.075-.405.291-.404.69.002.301.306.328.317.736.317.383 0 .441-.021.602-.209.098-.115.2-.34.227-.5l.05-.29.331.044c.916.123 1.15.125 1.194.01.038-.098.255-.112 1.731-.112h1.688l.318.323.317.322.535-.046a14.54 14.54 0 0 1 1.97-.024c.34.019.468-.003.575-.099.112-.1.272-.123.85-.123.668 0 .724-.012.88-.177.15-.158.224-.176.714-.176.586 0 1.45-.186 1.9-.408.15-.074.492-.155.761-.179.591-.052.894-.21 1.067-.559.13-.261.134-.262.57-.262.355 0 .577-.057 1.153-.294.392-.162.817-.384.945-.492.34-.289.567-.389 1.328-.584.674-.174.978-.295 1.325-.532a1.49 1.49 0 0 1 .499-.17c.176-.026.481-.138.677-.246.51-.284 1.403-.662 2.098-.89a5.18 5.18 0 0 0 1.025-.476 7.236 7.236 0 0 1 1.563-.75c.147-.047.3-.146.34-.22.084-.155.428-.347.62-.347.073 0 .289-.158.48-.351.272-.272.454-.383.817-.5.775-.246 1.193-.471 1.343-.723.175-.294.333-.412 1.584-1.189a33.254 33.254 0 0 0 1.4-.909c.201-.146.45-.287.552-.313.102-.025.186-.069.186-.097 0-.128.545-.571.81-.658.358-.117.711-.547 1.096-1.334.229-.468.305-.56.536-.652.147-.059.313-.107.367-.107.055 0 .253-.214.44-.475.398-.556.413-.569.745-.623.212-.036.281-.096.427-.37.4-.755 1.556-1.65 2.478-1.919.268-.078.375-.178.837-.784.569-.746.619-.906.427-1.359-.099-.234-.096-.247.09-.376a5.318 5.318 0 0 1 1.196-.574c.185-.055.334-.157.407-.278.063-.106.26-.331.438-.502.3-.287.323-.336.323-.667 0-.314.05-.436.41-.998.397-.62.42-.642.728-.689.234-.036.388-.119.588-.316l.27-.267v-.68c0-.413.037-.768.096-.906.187-.438.662-.943 1.074-1.143a3.98 3.98 0 0 0 .813-.588c.344-.327.458-.5.646-.974l.228-.577-.156-.304a4.17 4.17 0 0 0-.334-.533l-.177-.23.161-.44c.23-.627.539-1.217.903-1.724l.316-.44h.628c.525 0 .659-.024.814-.144.213-.167.331-.522.332-1.003 0-.185.048-.45.107-.59.06-.142.107-.466.107-.74 0-.598.17-.968.57-1.242.154-.105.281-.236.282-.291.006-.197.521-2.307.767-3.14.138-.465.276-1.02.309-1.232.032-.213.155-.658.273-.987.306-.852.438-1.684.494-3.099.044-1.096.066-1.256.2-1.444.605-.847.763-1.555.7-3.13-.037-.926-.026-1.232.056-1.483.076-.232.099-.602.085-1.374a16.06 16.06 0 0 1 .057-1.69c.077-.66.016-2.347-.19-5.283-.104-1.48-.152-1.772-.434-2.66-.096-.3-.189-.76-.208-1.02-.04-.558-.525-2.886-.784-3.761-.188-.634-.751-2.02-.932-2.293-.058-.087-.105-.288-.105-.447 0-.308-.079-.508-.293-.741-.074-.08-.228-.476-.343-.88a15.815 15.815 0 0 0-.457-1.34c-.481-1.176-2.182-4.403-3.504-6.651-1.064-1.809-1.885-3.274-2.367-4.227-.59-1.166-.929-1.729-1.355-2.256a7.452 7.452 0 0 1-.652-1.019c-.732-1.403-1.52-2.454-2.12-2.83-.548-.34-.855-.684-1.207-1.345-.305-.575-.758-1.042-1.248-1.287-.187-.094-.385-.234-.44-.313-.056-.078-.307-.273-.558-.433-.25-.16-1.029-.734-1.728-1.276-1.24-.961-4.445-3.135-5.126-3.478-.187-.094-.808-.345-1.379-.557L83.5 8.804H79.57l-.816.427c-1.507.79-2.07 1.175-2.875 1.964-1.17 1.148-2.554 3.063-2.594 3.586-.011.153-.06.35-.108.439-.11.204-.133.45-.18 1.98-.029.9-.016 1.29.046 1.404.047.087.098.516.113.954.031.91.2 1.48.818 2.77.643 1.342 1.175 2.055 1.755 2.351.136.07.232.196.287.376.102.335.478.705.843.829.247.083.294.14.447.532.106.276.275.54.452.71.338.325 1.201.767 1.496.767.116 0 .52.122.899.273.378.15.928.331 1.222.403.385.095.624.204.855.39.368.294.789.515 1.12.586.249.052.59.396.59.593 0 .07.225.288.517.504.284.21 1.623 1.465 2.975 2.787 1.716 1.678 2.534 2.431 2.71 2.493.179.063.31.186.462.439.228.376 1.007 1.142 1.234 1.213.093.03.152.133.183.322.081.504.324 1.025.724 1.553.466.616.971 1.455 1.141 1.897.068.175.234.414.37.532.202.173.275.314.384.738.073.288.23.726.347.973.148.313.213.56.214.812.002.452.186.856.528 1.16.256.228.263.248.256.704-.01.627.039 1.022.151 1.221.08.141.131.495.23 1.573.01.117.08.338.156.493.116.237.135.412.12 1.101-.012.578.013.89.083 1.057.081.191.095.634.07 2.28-.017 1.185-.062 2.14-.106 2.274-.042.128-.057.284-.033.346.025.063.013.355-.026.649-.04.294-.122.994-.184 1.556-.283 2.559-1.228 6.226-2.295 8.91-1.266 3.184-4.007 7.978-6.325 11.062-2.468 3.284-5.74 6.293-10.12 9.306-4.577 3.15-9.548 5.544-13.932 6.713-3.72.992-8.371 1.435-12.65 1.205-4.53-.245-7.247-.696-9.557-1.589-.52-.201-.935-.318-1.128-.318-.191 0-.423-.064-.618-.172-.171-.094-.632-.254-1.024-.355-1.947-.502-3.67-1.227-5.515-2.318-.416-.246-.92-.5-1.12-.564-.226-.073-.395-.178-.45-.279-.11-.202-.435-.397-.662-.397-.275 0-3.093-2.05-5.187-3.772-3.13-2.576-5.22-4.886-7.357-8.135-1.762-2.68-3.042-5.168-4.46-8.675-1.285-3.174-2.006-5.902-2.502-9.46-.391-2.808-.385-3.635.069-9.72.186-2.502.481-4.117 1.242-6.798 1.56-5.492 5.273-12.51 8.759-16.549 2.135-2.473 4.41-4.32 7.979-6.475 1.876-1.133 3.516-2.338 5.02-3.688.485-.436.955-.85 1.042-.92.28-.226 5.449-1.97 9.092-3.07 2.106-.636 3.965-1.026 5.772-1.212.451-.046.85-.112.887-.145.108-.095 1.496-.069 2.356.045.43.057 1.12.105 1.532.108.411.002.892.034 1.069.071.176.037.575.084.885.105.311.02.613.076.67.123.102.083.294.086 2.517.03.416-.01.576.013.677.1.073.063.252.153.4.2.147.047.3.146.34.22.066.12.157.135.814.135.407 0 .9-.036 1.093-.08.43-.098.575-.065 1.11.254.378.225.47.249.94.249.287 0 .542-.032.566-.07.073-.117.433-.08.558.057.064.07.152.22.194.335.047.125.22.296.437.435.289.184.432.23.734.23.386 0 .53-.085.565-.332.01-.07.191-.223.404-.34l.386-.214.021-.403c.018-.34 0-.41-.107-.442-.07-.02-.247-.1-.391-.175-.32-.167-.645-.176-.88-.024-.167.109-.185.104-.426-.105-.326-.283-.733-.487-1.085-.542-.236-.037-.364-.134-.796-.6-.43-.466-.55-.557-.735-.557-.167 0-.291-.074-.512-.303-.427-.443-.471-.466-1.093-.575a5.33 5.33 0 0 1-1.051-.315c-.555-.248-.876-.269-1.61-.104-.411.092-.56.097-.851.028-.436-.103-1.126-.535-1.38-.863-.161-.21-.24-.25-.55-.28-.23-.022-.411-.085-.504-.176-.19-.189-.117-.417.152-.475a.739.739 0 0 0 .332-.185c.166-.182.091-.31-.347-.591-.261-.168-.338-.262-.37-.458-.09-.534-.382-1.1-.858-1.661l-.234-.276-.988-.053c-2.406-.128-2.825-.133-3.434-.043-.577.086-.93.1-1.722.065-.297-.013-1.01.04-2.6.193-.429.04-.737.112-.926.214a1.37 1.37 0 0 1-.636.152c-.432 0-1.24.132-1.432.235a2.1 2.1 0 0 1-.499.13l-.786.117c-.237.035-.526.111-.642.17-.276.139-.884.264-1.285.264-.214 0-.46.07-.75.215-.238.119-.758.323-1.156.455-.675.223-.77.237-1.367.2-.633-.04-.646-.038-1.123.214-.274.145-.583.254-.717.254-.17 0-.293.06-.444.219-.115.12-.41.36-.654.533-.362.258-.529.327-.91.38-.286.04-.568.133-.731.24a2.751 2.751 0 0 1-.516.257c-.137.046-.355.19-.484.32-.245.245-.423.288-.668.158-.142-.075-.14-.081.058-.29.26-.271 1.075-.818 1.64-1.1.24-.12.497-.292.57-.382.072-.09.237-.207.366-.259.129-.052.361-.186.516-.297.155-.11.343-.201.42-.201.238 0 .563-.345.831-.88l.258-.516.489-.155c.515-.164.595-.162 1.456.039.274.064.723.121.997.127l.5.011.02-.546c.026-.674.124-.768.78-.749.494.015.589-.026.589-.25s-.155-.332-.535-.374c-.298-.034-.34-.017-.566.22-.134.14-.293.255-.354.255-.13 0-.683-.211-.683-.26 0-.02.1-.127.221-.24.167-.154.29-.204.502-.204.31 0 .736-.187.945-.415.108-.119.22-.149.548-.149.227 0 .432-.031.456-.07.025-.039.115-.07.202-.07.086 0 .276-.064.423-.141.146-.078.376-.141.51-.141.352 0 .641-.342.374-.444-.262-.099-1.047-.107-1.466-.014zm4.272.218c-.421.112-.655.272-.601.41.055.143.51.323.814.323h.282V1.9c0-.232-.024-.42-.053-.418-.03.003-.228.051-.442.108zm14.98 3.975c-.134.053-.161.118-.161.381 0 .276.026.331.196.417.385.196.76.256 1.318.21.505-.04.552-.057.552-.197 0-.184-.273-.395-.876-.677-.45-.21-.742-.248-1.03-.134zm-2.53.92c-.08.086-.125.248-.125.452v.316h.416c.416 0 .417.001.963.494.425.383.596.493.764.493.179 0 .233-.042.319-.245.104-.245.136-.859.06-1.139-.077-.284-.86-.52-1.703-.512-.466.005-.593.03-.695.14zm2.725 1.011c0 .39.023.47.159.563.232.161.544.135.814-.07.197-.148.239-.226.239-.446 0-.393-.159-.5-.736-.5h-.476v.453zm2.662.287c-.065.168.11.75.3.996.102.134.307.271.51.343.188.067.512.2.721.297.415.191.74.186 1.052-.016.132-.085.171-.173.171-.385 0-.311-.144-.497-.386-.497-.39 0-1.36-.441-1.601-.73-.13-.153-.708-.16-.767-.008zM45.204 8.916c.107.276.036.421-.35.716-.305.233-.453.3-.665.3-.491 0-.728-.513-.363-.787.417-.313 1.289-.459 1.378-.23zm-13.605.857c-.177.42-.525.607-1.308.698-.328.039-.35.03-.567-.23-.242-.29-.287-.45-.127-.45.055 0 .175-.063.267-.14.146-.12.28-.138 1.007-.14l.838-.003-.11.265zm39.207 2.882c-.09.09-.047.627.063.782.094.132.178.157.535.157h.423v-.347c0-.291-.03-.37-.188-.493-.182-.143-.724-.207-.833-.1zM67.872 38.53c-.785.082-1.369.253-2.138.628-1.274.621-2.202 1.54-2.816 2.787-.53 1.075-.603 1.417-.6 2.782.003 1.082.017 1.204.204 1.761.36 1.072.839 1.853 1.583 2.578 1.139 1.109 2.478 1.688 4.088 1.766 1.312.065 2.432-.21 3.594-.882.562-.324 1.535-1.256 1.94-1.857 1.274-1.895 1.363-4.454.226-6.465-1.179-2.084-3.66-3.348-6.08-3.098zm-23.195 6.092v6.022h4.988v-1.76h-3.064V38.598h-1.924v6.023zm-7.793-5.899c-.183.293-5.095 11.818-5.053 11.858.072.069 1.922.107 1.99.04.028-.027.343-.771.699-1.651l.648-1.601 2.142-.019 2.143-.019.697 1.622.697 1.62h1.024c.563 0 1.024-.012 1.024-.027s-1.118-2.686-2.485-5.934l-2.486-5.907-.501-.02c-.276-.012-.518.005-.539.038zm14.705 5.97v6.022h1.657c1.94-.001 2.75-.1 3.68-.445.913-.338 1.381-.636 2.072-1.316.894-.88 1.316-1.668 1.586-2.955.26-1.245.103-2.902-.38-3.985-.52-1.172-1.533-2.177-2.738-2.716-1.045-.469-2.144-.627-4.363-.628H51.59v6.022zm17.95-4.224c.726.169 1.399.556 2.01 1.156.846.831 1.276 1.839 1.276 2.99 0 1.176-.414 2.148-1.28 3.003-.875.866-1.829 1.263-3.031 1.263-1.222 0-2.154-.395-3.068-1.298-.88-.87-1.244-1.737-1.244-2.961 0-.733.127-1.288.438-1.911.528-1.06 1.666-1.964 2.825-2.241.546-.131 1.515-.132 2.075-.002zm-14.077.135c1.09.193 2.072.803 2.632 1.635.517.77.65 1.234.654 2.277.004 1.076-.162 1.66-.691 2.442-.858 1.267-2.19 1.915-3.956 1.923l-.588.002V40.501l.695.003c.382 0 .946.046 1.254.1zm-17.397 3.259c.38.917.682 1.678.67 1.69-.013.013-.65.014-1.417.004l-1.393-.02.688-1.672c.379-.92.704-1.672.724-1.672.02.001.347.753.728 1.67zM21.339 54.341c-2.463.538-4.26 2.284-4.856 4.72-.178.73-.164 2.014.031 2.797.543 2.177 2.21 3.88 4.412 4.51.735.21 2.432.227 3.156.031.447-.12 1.898-.785 2.158-.988.114-.089.124-.225.107-1.416l-.02-1.318-.25.33c-.48.64-1.457 1.248-2.355 1.469-.583.143-1.68.148-2.205.01-2.094-.55-3.532-2.646-3.212-4.684.228-1.45 1.034-2.599 2.26-3.219.786-.398 1.144-.48 2.057-.476.662.004.858.032 1.264.185.726.273 1.234.599 1.886 1.212l.59.555-.034-.414c-.02-.228-.055-.822-.079-1.32l-.044-.904-.422-.27a6.3 6.3 0 0 0-2-.803c-.659-.134-1.848-.137-2.444-.007zm11.577 0c-2.013.397-3.817 1.896-4.56 3.788a6.286 6.286 0 0 0 .172 4.943c.613 1.304 1.888 2.5 3.24 3.04.887.354 1.259.416 2.47.412 1.047-.004 1.189-.02 1.745-.2 2.061-.666 3.486-2.075 4.175-4.128.186-.557.2-.68.204-1.761.004-1.337-.067-1.675-.57-2.712-.87-1.788-2.474-3.013-4.439-3.387-.637-.121-1.806-.119-2.437.005zm31.33.006c-1.184.262-2.118.753-2.985 1.572-.658.62-1.03 1.134-1.406 1.937-.415.888-.535 1.47-.53 2.579.004 1.124.115 1.632.565 2.58.377.795.717 1.255 1.408 1.902 1.262 1.183 2.75 1.71 4.597 1.628 3.06-.136 5.486-2.408 5.858-5.487.14-1.165-.063-2.261-.634-3.405-.776-1.557-2.042-2.619-3.781-3.172-.516-.164-.754-.197-1.604-.217-.715-.018-1.136.006-1.487.083zM42.397 60.4v5.952h1.996v-4.84l.796-.047c1.328-.08 2.028-.33 2.738-.98.8-.731 1.136-1.625 1.08-2.868-.053-1.166-.45-1.94-1.284-2.507-.783-.532-1.523-.662-3.763-.662h-1.563V60.4zm8.837-.008v5.96h1.995v-4.839l.766-.044c1.418-.081 2.249-.411 2.959-1.175.607-.653.905-1.464.906-2.468.003-1.657-.833-2.774-2.403-3.212-.316-.089-.85-.123-2.317-.148l-1.906-.033v5.96zm22.59.008v5.952h5.06V64.59h-3.136V54.448h-1.924V60.4zm11.22-5.878c-.027.044-1.199 2.7-2.604 5.902l-2.554 5.822.442.045c.244.024.716.047 1.05.051l.605.007.653-1.601.652-1.601 2.198-.017 2.198-.016.68 1.566.68 1.566 1.048.02c.576.01 1.048.01 1.048 0 0-.011-1.135-2.667-2.522-5.902l-2.521-5.881-.501-.02c-.319-.014-.52.008-.551.059zm-49.47 1.776c.702.255 1.222.59 1.718 1.108.518.542.925 1.272 1.085 1.945.157.661.105 1.797-.11 2.403-.42 1.175-1.469 2.213-2.659 2.628-.618.215-1.84.27-2.47.11-1.236-.313-2.206-1.082-2.818-2.232-.361-.68-.487-1.288-.443-2.142.058-1.144.432-1.974 1.256-2.788a4.34 4.34 0 0 1 1.938-1.123c.732-.196 1.821-.157 2.503.091zm31.27-.034c1.35.472 2.367 1.446 2.774 2.653.546 1.621.151 3.267-1.071 4.474-.814.803-1.8 1.2-2.982 1.2-1.265 0-2.195-.381-3.074-1.26-.617-.616-.935-1.161-1.14-1.952a4.22 4.22 0 0 1 1.59-4.44c.578-.421.882-.57 1.5-.736.657-.176 1.807-.147 2.402.061zm-20.857.115c.508.118.741.279.956.659.335.592.267 1.499-.147 1.965-.375.422-.696.537-1.602.573l-.801.031V56.28l.588.001c.323 0 .776.045 1.006.099zm8.715-.022c.249.043.556.147.683.232.683.454.818 1.719.256 2.393-.364.436-.692.557-1.61.594l-.802.031V56.28h.51c.282 0 .715.035.963.078zm31.539 3.251c.382.9.695 1.661.695 1.69 0 .029-.642.053-1.426.053-.784 0-1.425-.023-1.425-.05 0-.093 1.383-3.331 1.422-3.33.022 0 .352.737.734 1.637zm18.113 6.362c.064.254-.031 1.022-.148 1.19-.053.076-.097.284-.097.46 0 .247-.127.61-.542 1.552a171.3 171.3 0 0 0-1.464 3.484c-.928 2.27-1.721 3.87-3.007 6.071a30.756 30.756 0 0 0-.703 1.255c-.118.24-.211.337-.352.365-.153.03-.328.24-.857 1.033-.365.548-.9 1.27-1.188 1.604a32.24 32.24 0 0 0-1.217 1.55c-.382.518-.824 1.037-.984 1.153-.225.164-.282.246-.254.367.03.126-.128.31-.843.986a465.07 465.07 0 0 0-2.342 2.24 49.802 49.802 0 0 1-2.78 2.462 114.045 114.045 0 0 0-3.638 3.03c-.242.214-.477.389-.521.389-.25 0-1.025.465-1.41.844-.371.368-.525.462-1.164.709a9.64 9.64 0 0 0-1.366.68c-.346.216-.698.39-.783.385-.09-.006-.2.06-.268.164-.166.252-.44.408-.816.466-.591.092-1.027.298-1.419.672-.262.25-.453.371-.632.4-.141.022-.312.09-.38.15-.067.06-.311.158-.543.218-.231.059-.625.201-.874.316-.53.243-.651.257-.651.074 0-.086.122-.204.338-.328.187-.106.451-.28.588-.386.138-.105.458-.244.713-.308.495-.124.838-.307 2.352-1.253.529-.331 1.695-1.02 2.592-1.531 1.872-1.067 3.126-1.87 4.38-2.802.485-.36 1.021-.715 1.192-.79.512-.224.953-.554 1.74-1.305a42.278 42.278 0 0 1 1.32-1.203c.313-.269 1.052-.949 1.641-1.51.59-.563 1.409-1.34 1.82-1.727.569-.537.81-.823 1.012-1.198.184-.344.361-.563.585-.724.177-.128.455-.397.617-.599.275-.342.702-1.122.702-1.283 0-.039.144-.16.319-.27.423-.263.572-.449 1.182-1.469.284-.473.859-1.385 1.278-2.026.42-.641.994-1.546 1.276-2.01.283-.464.62-.94.75-1.057.279-.253.478-.623.643-1.198.067-.232.264-.664.438-.96.376-.638.8-1.586 1.035-2.315.093-.29.276-.703.406-.916.446-.73.883-1.71 1.018-2.28.2-.847.846-2.662 1.013-2.844.186-.204.236-.2.293.023zM72.423 100.4a1.704 1.704 0 0 1-.453.361c-.331.164-1.126.388-1.375.388h-.199l.198-.245c.26-.323 1.25-.713 1.864-.735l.167-.006-.203.237z" fill="#fff"/></svg>