<svg width="190" height="98" fill="none" xmlns="http://www.w3.org/2000/svg"><path fill-rule="evenodd" clip-rule="evenodd" d="M86.332.229c-2.142.35-5.912 1.552-7.548 2.406l-1.056.55 2.621.152c6.4.37 12.148 2.19 16.84 5.33l1.635 1.095 3.997.083c3.442.072 4.273.167 6 .694 1.102.336 2.042.648 2.087.694.046.045-2.012.083-4.573.083-2.561 0-4.738.082-4.839.182-.1.1.297.576.883 1.06 2.043 1.682 5.5 5.338 7.156 7.569 2.896 3.898 4.962 7.958 5.977 11.742.23.86.493 1.65.583 1.756.091.106.357-.76.591-1.923.552-2.739.562-7.18.023-10.019-2-10.537-10.25-18.98-20.73-21.215-2.368-.505-7.282-.627-9.647-.24zm-9.579 4.668c-1.1 1.213-3.016 6.53-3.546 9.84-.37 2.314-.3 7.553.135 10.04.537 3.075 1.823 6.725 3.528 10.018 1.703 3.288 2.163 3.854 1.876 2.307-.47-2.531-.53-6.547-.135-9.228 1.244-8.452 5.817-14.207 13.152-16.554.728-.233 1.413-.504 1.52-.602.31-.281-2.822-2.384-5.777-3.88-3.069-1.554-6.066-2.373-8.682-2.373-1.31 0-1.765.095-2.07.432zm-3.796 1.585c-3.993 3.432-7.04 8.416-8.425 13.786-.635 2.46-.87 7.275-.484 9.91 1.082 7.386 5.04 13.914 10.966 18.09 1.505 1.06 4.686 2.833 5.083 2.833.082 0-.321-.55-.897-1.221-3.696-4.315-6.83-9.605-8.25-13.924-3.041-9.254-2.034-19.73 2.767-28.787.649-1.223 1.145-2.223 1.104-2.223-.041 0-.88.691-1.864 1.536zm21.455 7.086c-2.274.727-4.858 2.244-6.575 3.86-1.885 1.773-3.303 4.366-3.8 6.946-.424 2.206-.148 6.567.61 9.622 1.183 4.77 4.184 11.424 7.445 16.504l1.544 2.404 1.05-.067c.578-.037 1.81-.273 2.737-.525 4.317-1.174 8.075-3.294 11.479-6.477l2.16-2.02-.149-1.585c-.943-10.008-4.247-17.768-10.849-25.478-2.217-2.59-3.384-3.645-4.003-3.62-.178.007-.92.203-1.65.436zM13.724 79.031c-4.703 6.498-9.715 13.42-11.137 15.38L0 97.977h3.34l4.409-6.13 4.409-6.13h9.988l.064 6.07.064 6.07 1.507.071L25.29 98l-.063-15.337-.061-15.336-1.446-.055-1.445-.056-8.55 11.815zm136.809.81c0 8.09-.084 12.584-.233 12.491-.129-.079-4.959-5.71-10.735-12.514l-10.502-12.37h-2.616v30.289h3.127l.062-12.539.063-12.537 3.767 4.424c2.071 2.434 6.872 8.076 10.666 12.538l6.9 8.114h2.706l-.156-2.705c-.086-1.487-.157-8.356-.157-15.265l-.002-12.56h-2.89v12.635zm7.226 2.63v15.266H160.89v-12.02h10.021l4.323 5.995 4.323 5.996 1.646.014c.905.008 1.61-.081 1.565-.198-.044-.117-5.012-6.982-11.039-15.255L160.77 67.227l-1.506-.01-1.505-.01v15.265zm-128.38.241v15.265l9.575-.01 9.574-.009.843-1.127c.464-.62.88-1.21.923-1.313.045-.102-3.939-.185-8.851-.185H32.51V67.447H29.38v15.265zm14.865-14.069c-.492.658-.894 1.253-.894 1.322 0 .07 2.655.127 5.9.127h5.902V98l1.505-.072 1.506-.071-.098-13.883-.098-13.882h10.329l.895-1.196c.492-.658.894-1.253.894-1.322 0-.07-5.613-.127-12.473-.127H45.138l-.894 1.196zm29.023 8.48c.034 5.322.094 12.137.135 15.145l.073 5.469h19.928l.847-1.142.848-1.142-9.375-.063-9.375-.063V84.275h16.275l.895-1.196c.492-.658.894-1.253.894-1.322 0-.07-4.064-.127-9.032-.127h-9.032V70.092h16.516l.895-1.196c.492-.658.894-1.253.894-1.322 0-.07-4.825-.127-10.723-.127H73.206l.061 9.676zm25.963 5.454v15.16H102.36V84.233l3.914.083c4.583.097 4.909.211 6.576 2.31.601.756 2.47 3.565 4.153 6.242l3.06 4.868h3.548l-.355-.54c-.195-.298-1.9-2.95-3.788-5.896-2.203-3.435-3.905-5.814-4.748-6.635l-1.314-1.281 1.24-.147c2.751-.325 5.143-2.07 6.433-4.693.57-1.16.668-1.65.656-3.307-.011-1.618-.125-2.174-.676-3.297-.81-1.654-2.397-3.092-4.212-3.82-1.304-.523-1.696-.549-9.489-.624l-8.13-.078v15.16zm16.746-11.764c1.181.591 1.877 1.127 2.346 1.804.811 1.17 1.09 3.019.656 4.332-.426 1.288-2.015 2.911-3.722 3.802l-1.454.76-5.721.075-5.72.076V69.808l5.968.082 5.967.081 1.68.842zm48.888 6.529c2.12 2.926 3.89 5.412 3.934 5.525.045.113-1.717.206-3.914.206h-3.994l-.001-2.825a117.449 117.449 0 0 0-.157-5.529c-.09-1.564-.065-2.703.061-2.7.12.002 1.952 2.397 4.071 5.323zm-142.71.322v5.409H18.18c-2.186 0-3.975-.064-3.975-.141 0-.181 7.716-10.677 7.85-10.677.054 0 .099 2.434.099 5.409zM185.543 92.67c-.871.53-1.404 1.831-1.176 2.87.083.377.478.998.878 1.38.603.578.931.695 1.933.695 1.087 0 1.29-.09 2.032-.897 1.202-1.31 1.012-3.127-.432-4.136-.734-.513-2.318-.47-3.235.088zm2.841.277c.761.406 1.192 1.677.913 2.688-.448 1.62-2.243 2.12-3.58.997-.623-.523-.741-.792-.741-1.693 0-.817.141-1.212.592-1.662.644-.643 1.945-.796 2.816-.33zm-2.203 2.01c0 .891.104 1.577.24 1.577.133 0 .241-.325.241-.722 0-.396.103-.72.227-.72.125 0 .42.324.655.72.234.397.511.722.616.722.287 0 .226-.32-.17-.884-.318-.453-.316-.526.017-.653.242-.093.347-.376.297-.806-.068-.593-.183-.67-1.1-.736l-1.023-.074v1.576zm1.608-.923c.15.39-.274.806-.826.813-.165.002-.301-.267-.301-.597 0-.444.128-.601.49-.601.269 0 .555.173.637.385z" fill="#fff"/></svg>