<svg width="69" height="108" fill="none" xmlns="http://www.w3.org/2000/svg"><path fill-rule="evenodd" clip-rule="evenodd" d="M0 36.792C0 72.1.013 73.698.325 76.418c.18 1.56.413 3.248.52 3.753.97 4.603 2.924 8.024 5.956 10.433 2.76 2.192 7.212 3.607 12.175 3.867l2.099.11-.044-11.505c-.024-6.329-.024-14.472 0-18.098l.044-6.59 2.418 2.665c3.42 3.773 3.49 3.85 4.887 5.423.692.78 1.299 1.457 1.347 1.502a2325.591 2325.591 0 0 1 7.973 8.918l2.937 3.275a814.86 814.86 0 0 0 3.155 3.508c.212.23 1.233 1.374 2.268 2.543l1.883 2.126 10.118.004c8.958.003 10.67-.059 9.992-.359-.07-.03-.693-.694-1.385-1.475-.693-.78-1.335-1.502-1.428-1.604-.092-.101-.631-.702-1.197-1.336-6.91-7.736-10.434-11.673-11.062-12.359-.092-.1-.621-.701-1.175-1.334a173.818 173.818 0 0 0-3.293-3.658c-.67-.725-1.398-1.544-3.928-4.416a97.2 97.2 0 0 0-1.466-1.6 34.75 34.75 0 0 1-1.29-1.446c-.329-.415-.329-.417.038-.823.202-.224.934-1.044 1.626-1.823.693-.78 1.335-1.498 1.428-1.597a539.26 539.26 0 0 0 2.519-2.814c.28-.317 3.01-3.342 3.19-3.536.092-.1.66-.732 1.26-1.405.6-.674 1.167-1.306 1.259-1.406.092-.1.425-.482.74-.85.315-.367 1.19-1.344 1.946-2.17.756-.827 1.67-1.842 2.03-2.255.362-.414.698-.79.747-.835.049-.046 1.331-1.474 2.85-3.174 1.517-1.7 2.8-3.127 2.849-3.173.049-.046.655-.723 1.346-1.504.692-.78 1.541-1.72 1.888-2.087.346-.368.63-.725.632-.794 0-.069-4.554-.125-10.122-.125H47.932l-.531.626c-.718.849-1.296 1.5-2.034 2.297-.34.367-2.129 2.36-3.974 4.426a761.611 761.611 0 0 1-3.441 3.841 765.71 765.71 0 0 0-3.44 3.842 575.031 575.031 0 0 1-3.444 3.842c-.05.045-1.027 1.135-2.17 2.421a324.801 324.801 0 0 1-2.853 3.174c-.425.46-1.34 1.473-2.032 2.252-.692.78-1.399 1.57-1.57 1.754-.171.185-.5.58-.734.88-.232.298-.49.542-.572.542-.086 0-.13-12.204-.105-29.145L21.075 0H0v36.792zm.71 64.226c-.164.106-.203.918-.168 3.467l.046 3.329H1.763l.05-1.166c.047-1.073.321-1.757.704-1.757.062 0 .584.676 1.16 1.503l1.045 1.503h.84c.978 0 1.034.176-.655-2.072-.684-.91-1.273-1.737-1.31-1.837-.037-.101.498-.774 1.188-1.497.69-.722 1.21-1.389 1.152-1.48-.057-.092-.418-.132-.802-.089-.595.066-.847.234-1.699 1.128a272.1 272.1 0 0 1-1.253 1.309c-.225.23-.26.115-.336-1.068-.08-1.265-.103-1.327-.504-1.369-.23-.024-.515.02-.633.096zm6.46-.029c-.065.064-.117 1.646-.117 3.516v3.401l2.477-.046 2.477-.046v-1.17l-1.89-.047-1.889-.047V104.891h3.191v-1.157l-1.553-.048-1.554-.048v-1.336l1.815-.048 1.816-.047-.052-.621-.052-.62-2.277-.047c-1.252-.025-2.329.006-2.393.07zm5.667.107c-.045.118.396 1.678.98 3.466l1.063 3.252H16.313l.719-2.172c1.134-3.425 1.44-4.399 1.44-4.586 0-.096-.289-.174-.641-.174-.723 0-.618-.216-1.644 3.382-.255.896-.524 1.629-.598 1.629-.073 0-.18-.207-.239-.46-.286-1.249-1.309-4.315-1.475-4.423-.306-.199-.948-.145-1.038.086zm6.513-.078c-.164.106-.203.918-.168 3.467l.046 3.329H20.403v-6.848l-.42-.044c-.23-.024-.515.02-.633.096zm2.35.004c-.163.103-.202.912-.167 3.463l.046 3.329H22.754l.084-2.339.084-2.338.656 1.169c.36.643.97 1.695 1.355 2.338.699 1.167.702 1.17 1.444 1.17h.743l.046-3.387c.05-3.678.042-3.708-.881-3.477-.413.103-.415.113-.462 2.398l-.046 2.294-.443-.751a76.112 76.112 0 0 1-.902-1.587c-.85-1.544-1.14-2.003-1.4-2.213-.29-.235-1.009-.273-1.331-.069zm8.77.074c-.046.117-.062 1.677-.037 3.465l.046 3.253.63.051.63.052v-2.298c0-2.437.121-2.651.557-.979.144.551.4 1.491.567 2.088l.306 1.086.69.05c.547.04.709-.013.78-.251.05-.165.32-1.155.602-2.199.281-1.045.553-1.941.603-1.991.051-.05.092.936.092 2.191v2.283h1.344v-3.406c0-3.745.04-3.612-1.063-3.606-.761.003-.963.187-1.212 1.104-.122.448-.382 1.415-.58 2.15-.387 1.441-.586 1.798-.73 1.311-.709-2.411-1.117-3.913-1.117-4.116 0-.325-.36-.452-1.279-.452-.452 0-.78.084-.83.214zm8.027-.103c-.273.109-.29 4.103-.021 5.162.47 1.858 2.959 2.479 4.358 1.088.656-.653.825-1.468.826-3.978l.001-2.21-.42-.104c-.878-.22-.923-.102-.926 2.39-.002 2.536-.133 3.016-.887 3.265-.617.204-1.438-.129-1.643-.667-.085-.221-.154-1.404-.154-2.628 0-1.876-.042-2.242-.266-2.328a1.104 1.104 0 0 0-.868.01zm6.247.103c-.046.117-.062 1.677-.037 3.465l.046 3.253H45.928l.084-1.297c.046-.713.14-1.295.21-1.294l1.008.004c1.246.004 1.37.127 1.469 1.453l.084 1.134.652.053.652.053-.078-1.346c-.056-.954-.163-1.437-.368-1.663-.275-.302-.268-.34.14-.778.918-.985.315-2.664-1.087-3.029-1.068-.278-3.844-.284-3.95-.008zm6.586-.103c-.062.062-.112 1.64-.112 3.508v3.396h1.16l.05-1.211.05-1.211 1.183-.083c1.934-.137 2.69-.856 2.558-2.435-.131-1.584-.943-2.052-3.588-2.068-.654-.004-1.24.043-1.301.104zm5.84.103c-.045.117-.062 1.677-.036 3.465l.045 3.253h1.176l.048-1.462.049-1.461h2.828l.049 1.461.048 1.462h1.176l.045-3.379.046-3.378-.423-.105c-.813-.203-.927-.028-.927 1.428v1.341h-2.855v-1.318c0-1.048-.055-1.339-.266-1.42-.44-.167-.915-.114-1.003.113zm6.068-.069c-.04.064.393.941.963 1.948 1.01 1.789 1.036 1.867 1.12 3.335l.087 1.504H66.583l.084-1.42c.07-1.182.162-1.538.546-2.126.254-.389.462-.748.462-.799 0-.05.298-.615.662-1.255l.663-1.163-.41-.103c-.825-.205-1.137.041-1.818 1.439-.358.734-.704 1.334-.768 1.334-.064 0-.353-.507-.64-1.127-.289-.62-.596-1.231-.684-1.358-.167-.243-1.317-.41-1.442-.209zm-14.635 1.454c.326.324.337.743.03 1.16-.181.248-.499.333-1.427.385l-1.194.067v-1.875h1.164c.833 0 1.238.075 1.427.263zm5.984-.09c.22.117.324.348.323.71-.005.887-.2 1.034-1.376 1.036l-1.057.002-.052-.729c-.03-.401-.013-.833.037-.96.107-.279 1.633-.321 2.125-.059zm-26.375 4.764v.762l.63-.052c.61-.05.63-.072.68-.761l.053-.71h-1.363v.761z" fill="#fff"/></svg>